<mxfile host="app.diagrams.net" modified="2022-11-06T11:32:13.736Z" agent="5.0 (Macintosh; Intel Mac OS X 10_15_7) AppleWebKit/537.36 (KHTML, like Gecko) Chrome/107.0.0.0 Safari/537.36" etag="UxIJ87Nv-i0UHQMWDewI" version="20.5.1" type="github" pages="4">
  <diagram id="C5RBs43oDa-KdzZeNtuy" name="q2i2i">
    <mxGraphModel dx="1298" dy="809" grid="0" gridSize="10" guides="1" tooltips="1" connect="1" arrows="1" fold="1" page="1" pageScale="1" pageWidth="827" pageHeight="1169" math="0" shadow="0">
      <root>
        <mxCell id="WIyWlLk6GJQsqaUBKTNV-0" />
        <mxCell id="WIyWlLk6GJQsqaUBKTNV-1" parent="WIyWlLk6GJQsqaUBKTNV-0" />
        <mxCell id="HGwPuuSSGh5aYulOvwMj-5" style="edgeStyle=orthogonalEdgeStyle;rounded=0;orthogonalLoop=1;jettySize=auto;html=1;exitX=1;exitY=0;exitDx=0;exitDy=27.5;exitPerimeter=0;entryX=0;entryY=0.25;entryDx=0;entryDy=0;fontSize=14;" parent="WIyWlLk6GJQsqaUBKTNV-1" source="HGwPuuSSGh5aYulOvwMj-1" target="HGwPuuSSGh5aYulOvwMj-2" edge="1">
          <mxGeometry relative="1" as="geometry" />
        </mxCell>
        <mxCell id="HGwPuuSSGh5aYulOvwMj-1" value="Cache / Indexer" style="shape=cylinder3;whiteSpace=wrap;html=1;boundedLbl=1;backgroundOutline=1;size=15;fontSize=14;" parent="WIyWlLk6GJQsqaUBKTNV-1" vertex="1">
          <mxGeometry x="40" y="120" width="60" height="80" as="geometry" />
        </mxCell>
        <mxCell id="HGwPuuSSGh5aYulOvwMj-4" style="edgeStyle=orthogonalEdgeStyle;rounded=0;orthogonalLoop=1;jettySize=auto;html=1;exitX=0.5;exitY=0;exitDx=0;exitDy=0;startArrow=classic;startFill=1;endArrow=none;endFill=0;fontSize=14;" parent="WIyWlLk6GJQsqaUBKTNV-1" source="HGwPuuSSGh5aYulOvwMj-2" edge="1">
          <mxGeometry relative="1" as="geometry">
            <mxPoint x="280" y="70" as="targetPoint" />
          </mxGeometry>
        </mxCell>
        <mxCell id="HGwPuuSSGh5aYulOvwMj-20" value="User Query" style="edgeLabel;html=1;align=center;verticalAlign=middle;resizable=0;points=[];fontSize=14;" parent="HGwPuuSSGh5aYulOvwMj-4" vertex="1" connectable="0">
          <mxGeometry x="0.1077" relative="1" as="geometry">
            <mxPoint x="40" as="offset" />
          </mxGeometry>
        </mxCell>
        <mxCell id="HGwPuuSSGh5aYulOvwMj-6" style="edgeStyle=orthogonalEdgeStyle;rounded=0;orthogonalLoop=1;jettySize=auto;html=1;exitX=0;exitY=0.75;exitDx=0;exitDy=0;entryX=1;entryY=0;entryDx=0;entryDy=52.5;entryPerimeter=0;fontSize=14;" parent="WIyWlLk6GJQsqaUBKTNV-1" source="HGwPuuSSGh5aYulOvwMj-2" target="HGwPuuSSGh5aYulOvwMj-1" edge="1">
          <mxGeometry relative="1" as="geometry" />
        </mxCell>
        <mxCell id="HGwPuuSSGh5aYulOvwMj-8" value="" style="edgeStyle=orthogonalEdgeStyle;rounded=0;orthogonalLoop=1;jettySize=auto;html=1;startArrow=none;startFill=0;endArrow=classic;endFill=1;fontSize=14;" parent="WIyWlLk6GJQsqaUBKTNV-1" source="HGwPuuSSGh5aYulOvwMj-2" target="HGwPuuSSGh5aYulOvwMj-7" edge="1">
          <mxGeometry relative="1" as="geometry" />
        </mxCell>
        <mxCell id="HGwPuuSSGh5aYulOvwMj-17" value="Recalled Items" style="edgeLabel;html=1;align=center;verticalAlign=middle;resizable=0;points=[];fontSize=14;" parent="HGwPuuSSGh5aYulOvwMj-8" vertex="1" connectable="0">
          <mxGeometry x="-0.6125" y="1" relative="1" as="geometry">
            <mxPoint x="49" y="48" as="offset" />
          </mxGeometry>
        </mxCell>
        <mxCell id="HGwPuuSSGh5aYulOvwMj-2" value="Retrieval" style="rounded=1;whiteSpace=wrap;html=1;fontSize=14;" parent="WIyWlLk6GJQsqaUBKTNV-1" vertex="1">
          <mxGeometry x="220" y="135" width="120" height="50" as="geometry" />
        </mxCell>
        <mxCell id="HGwPuuSSGh5aYulOvwMj-10" style="edgeStyle=orthogonalEdgeStyle;rounded=0;orthogonalLoop=1;jettySize=auto;html=1;exitX=0.5;exitY=1;exitDx=0;exitDy=0;startArrow=none;startFill=0;endArrow=classic;endFill=1;fontSize=14;" parent="WIyWlLk6GJQsqaUBKTNV-1" source="HGwPuuSSGh5aYulOvwMj-7" edge="1">
          <mxGeometry relative="1" as="geometry">
            <mxPoint x="280" y="520" as="targetPoint" />
          </mxGeometry>
        </mxCell>
        <mxCell id="HGwPuuSSGh5aYulOvwMj-7" value="Pre-rank" style="rounded=1;whiteSpace=wrap;html=1;fontSize=14;" parent="WIyWlLk6GJQsqaUBKTNV-1" vertex="1">
          <mxGeometry x="220" y="410" width="120" height="50" as="geometry" />
        </mxCell>
        <mxCell id="HGwPuuSSGh5aYulOvwMj-15" style="edgeStyle=orthogonalEdgeStyle;rounded=0;orthogonalLoop=1;jettySize=auto;html=1;exitX=1;exitY=0.5;exitDx=0;exitDy=0;startArrow=classic;startFill=1;endArrow=none;endFill=0;fontSize=14;" parent="WIyWlLk6GJQsqaUBKTNV-1" source="HGwPuuSSGh5aYulOvwMj-11" edge="1">
          <mxGeometry relative="1" as="geometry">
            <mxPoint x="280" y="270" as="targetPoint" />
            <Array as="points">
              <mxPoint x="260" y="270" />
            </Array>
          </mxGeometry>
        </mxCell>
        <mxCell id="HGwPuuSSGh5aYulOvwMj-16" style="edgeStyle=orthogonalEdgeStyle;rounded=0;orthogonalLoop=1;jettySize=auto;html=1;exitX=0.5;exitY=1;exitDx=0;exitDy=0;entryX=0.5;entryY=0;entryDx=0;entryDy=0;entryPerimeter=0;startArrow=none;startFill=0;endArrow=classic;endFill=1;fontSize=14;" parent="WIyWlLk6GJQsqaUBKTNV-1" source="HGwPuuSSGh5aYulOvwMj-11" target="HGwPuuSSGh5aYulOvwMj-12" edge="1">
          <mxGeometry relative="1" as="geometry" />
        </mxCell>
        <mxCell id="HGwPuuSSGh5aYulOvwMj-18" value="Trigger" style="edgeLabel;html=1;align=center;verticalAlign=middle;resizable=0;points=[];fontSize=14;" parent="HGwPuuSSGh5aYulOvwMj-16" vertex="1" connectable="0">
          <mxGeometry x="-0.0222" y="2" relative="1" as="geometry">
            <mxPoint x="28" y="-2" as="offset" />
          </mxGeometry>
        </mxCell>
        <mxCell id="HGwPuuSSGh5aYulOvwMj-11" value="Top K from High Quality Queues" style="rounded=1;whiteSpace=wrap;html=1;fontSize=14;" parent="WIyWlLk6GJQsqaUBKTNV-1" vertex="1">
          <mxGeometry x="10" y="240" width="120" height="60" as="geometry" />
        </mxCell>
        <mxCell id="HGwPuuSSGh5aYulOvwMj-13" style="edgeStyle=orthogonalEdgeStyle;rounded=0;orthogonalLoop=1;jettySize=auto;html=1;exitX=1;exitY=0.5;exitDx=0;exitDy=0;exitPerimeter=0;startArrow=none;startFill=0;endArrow=classic;endFill=1;fontSize=14;" parent="WIyWlLk6GJQsqaUBKTNV-1" source="HGwPuuSSGh5aYulOvwMj-12" edge="1">
          <mxGeometry relative="1" as="geometry">
            <mxPoint x="280" y="390" as="targetPoint" />
          </mxGeometry>
        </mxCell>
        <mxCell id="HGwPuuSSGh5aYulOvwMj-19" value="I2I Recalled Items" style="edgeLabel;html=1;align=center;verticalAlign=middle;resizable=0;points=[];fontSize=14;" parent="HGwPuuSSGh5aYulOvwMj-13" vertex="1" connectable="0">
          <mxGeometry x="-0.22" y="-1" relative="1" as="geometry">
            <mxPoint x="-2" y="-11" as="offset" />
          </mxGeometry>
        </mxCell>
        <mxCell id="HGwPuuSSGh5aYulOvwMj-12" value="Item to Item (I2I) Cache" style="shape=cylinder3;whiteSpace=wrap;html=1;boundedLbl=1;backgroundOutline=1;size=15;fontSize=14;" parent="WIyWlLk6GJQsqaUBKTNV-1" vertex="1">
          <mxGeometry x="40" y="350" width="60" height="80" as="geometry" />
        </mxCell>
        <mxCell id="HGwPuuSSGh5aYulOvwMj-27" style="edgeStyle=orthogonalEdgeStyle;rounded=0;orthogonalLoop=1;jettySize=auto;html=1;exitX=0.5;exitY=0;exitDx=0;exitDy=0;fontSize=14;startArrow=classic;startFill=1;endArrow=none;endFill=0;" parent="WIyWlLk6GJQsqaUBKTNV-1" source="HGwPuuSSGh5aYulOvwMj-21" edge="1">
          <mxGeometry relative="1" as="geometry">
            <mxPoint x="748" y="70" as="targetPoint" />
          </mxGeometry>
        </mxCell>
        <mxCell id="HGwPuuSSGh5aYulOvwMj-32" style="edgeStyle=orthogonalEdgeStyle;rounded=0;orthogonalLoop=1;jettySize=auto;html=1;exitX=0;exitY=0.5;exitDx=0;exitDy=0;entryX=1;entryY=0.5;entryDx=0;entryDy=0;fontSize=14;startArrow=none;startFill=0;endArrow=classic;endFill=1;" parent="WIyWlLk6GJQsqaUBKTNV-1" source="HGwPuuSSGh5aYulOvwMj-21" target="HGwPuuSSGh5aYulOvwMj-28" edge="1">
          <mxGeometry relative="1" as="geometry" />
        </mxCell>
        <mxCell id="HGwPuuSSGh5aYulOvwMj-35" value="Trigger" style="edgeLabel;html=1;align=center;verticalAlign=middle;resizable=0;points=[];fontSize=14;" parent="HGwPuuSSGh5aYulOvwMj-32" vertex="1" connectable="0">
          <mxGeometry x="-0.15" y="3" relative="1" as="geometry">
            <mxPoint x="-98" y="47" as="offset" />
          </mxGeometry>
        </mxCell>
        <mxCell id="HGwPuuSSGh5aYulOvwMj-39" style="edgeStyle=orthogonalEdgeStyle;rounded=0;orthogonalLoop=1;jettySize=auto;html=1;exitX=0.5;exitY=1;exitDx=0;exitDy=0;entryX=0.5;entryY=0;entryDx=0;entryDy=0;fontSize=14;startArrow=none;startFill=0;endArrow=classic;endFill=1;" parent="WIyWlLk6GJQsqaUBKTNV-1" source="HGwPuuSSGh5aYulOvwMj-21" target="HGwPuuSSGh5aYulOvwMj-33" edge="1">
          <mxGeometry relative="1" as="geometry" />
        </mxCell>
        <mxCell id="HGwPuuSSGh5aYulOvwMj-42" value="Mainly &lt;br&gt;Recalled Items" style="edgeLabel;html=1;align=center;verticalAlign=middle;resizable=0;points=[];fontSize=14;" parent="HGwPuuSSGh5aYulOvwMj-39" vertex="1" connectable="0">
          <mxGeometry x="-0.2222" y="-1" relative="1" as="geometry">
            <mxPoint x="-51" as="offset" />
          </mxGeometry>
        </mxCell>
        <mxCell id="HGwPuuSSGh5aYulOvwMj-21" value="Pre-rank" style="rounded=1;whiteSpace=wrap;html=1;fontSize=14;" parent="WIyWlLk6GJQsqaUBKTNV-1" vertex="1">
          <mxGeometry x="688" y="135" width="120" height="50" as="geometry" />
        </mxCell>
        <mxCell id="HGwPuuSSGh5aYulOvwMj-34" style="edgeStyle=orthogonalEdgeStyle;rounded=0;orthogonalLoop=1;jettySize=auto;html=1;exitX=0.5;exitY=1;exitDx=0;exitDy=0;entryX=0.5;entryY=0;entryDx=0;entryDy=0;entryPerimeter=0;fontSize=14;startArrow=none;startFill=0;endArrow=classic;endFill=1;" parent="WIyWlLk6GJQsqaUBKTNV-1" source="HGwPuuSSGh5aYulOvwMj-28" target="HGwPuuSSGh5aYulOvwMj-30" edge="1">
          <mxGeometry relative="1" as="geometry" />
        </mxCell>
        <mxCell id="HGwPuuSSGh5aYulOvwMj-28" value="Top K" style="rounded=1;whiteSpace=wrap;html=1;fontSize=14;" parent="WIyWlLk6GJQsqaUBKTNV-1" vertex="1">
          <mxGeometry x="450" y="130" width="120" height="60" as="geometry" />
        </mxCell>
        <mxCell id="HGwPuuSSGh5aYulOvwMj-36" style="edgeStyle=orthogonalEdgeStyle;rounded=0;orthogonalLoop=1;jettySize=auto;html=1;exitX=0.5;exitY=1;exitDx=0;exitDy=0;exitPerimeter=0;entryX=0.5;entryY=0;entryDx=0;entryDy=0;fontSize=14;startArrow=none;startFill=0;endArrow=classic;endFill=1;" parent="WIyWlLk6GJQsqaUBKTNV-1" source="HGwPuuSSGh5aYulOvwMj-30" target="HGwPuuSSGh5aYulOvwMj-31" edge="1">
          <mxGeometry relative="1" as="geometry" />
        </mxCell>
        <mxCell id="HGwPuuSSGh5aYulOvwMj-30" value="Item to Item (I2I) Cache" style="shape=cylinder3;whiteSpace=wrap;html=1;boundedLbl=1;backgroundOutline=1;size=15;fontSize=14;" parent="WIyWlLk6GJQsqaUBKTNV-1" vertex="1">
          <mxGeometry x="480" y="240" width="60" height="80" as="geometry" />
        </mxCell>
        <mxCell id="HGwPuuSSGh5aYulOvwMj-37" style="edgeStyle=orthogonalEdgeStyle;rounded=0;orthogonalLoop=1;jettySize=auto;html=1;exitX=1;exitY=0.5;exitDx=0;exitDy=0;entryX=0.5;entryY=0;entryDx=0;entryDy=0;fontSize=14;startArrow=none;startFill=0;endArrow=classic;endFill=1;" parent="WIyWlLk6GJQsqaUBKTNV-1" source="HGwPuuSSGh5aYulOvwMj-31" target="HGwPuuSSGh5aYulOvwMj-33" edge="1">
          <mxGeometry relative="1" as="geometry" />
        </mxCell>
        <mxCell id="HGwPuuSSGh5aYulOvwMj-38" value="Supplement Items" style="edgeLabel;html=1;align=center;verticalAlign=middle;resizable=0;points=[];fontSize=14;" parent="HGwPuuSSGh5aYulOvwMj-37" vertex="1" connectable="0">
          <mxGeometry x="-0.225" y="-3" relative="1" as="geometry">
            <mxPoint y="-13" as="offset" />
          </mxGeometry>
        </mxCell>
        <mxCell id="HGwPuuSSGh5aYulOvwMj-31" value="Status Check" style="rounded=1;whiteSpace=wrap;html=1;fontSize=14;" parent="WIyWlLk6GJQsqaUBKTNV-1" vertex="1">
          <mxGeometry x="450" y="360" width="120" height="60" as="geometry" />
        </mxCell>
        <mxCell id="HGwPuuSSGh5aYulOvwMj-41" style="edgeStyle=orthogonalEdgeStyle;rounded=0;orthogonalLoop=1;jettySize=auto;html=1;exitX=0.5;exitY=1;exitDx=0;exitDy=0;fontSize=14;startArrow=none;startFill=0;endArrow=classic;endFill=1;" parent="WIyWlLk6GJQsqaUBKTNV-1" source="HGwPuuSSGh5aYulOvwMj-33" edge="1">
          <mxGeometry relative="1" as="geometry">
            <mxPoint x="748" y="520" as="targetPoint" />
          </mxGeometry>
        </mxCell>
        <mxCell id="HGwPuuSSGh5aYulOvwMj-33" value="Deduplicate &amp;amp; Truncate" style="rounded=1;whiteSpace=wrap;html=1;fontSize=14;" parent="WIyWlLk6GJQsqaUBKTNV-1" vertex="1">
          <mxGeometry x="688" y="410" width="120" height="60" as="geometry" />
        </mxCell>
      </root>
    </mxGraphModel>
  </diagram>
  <diagram id="5fOxwFPV1g2caRDRGUS9" name="swing">
    <mxGraphModel dx="1298" dy="809" grid="0" gridSize="10" guides="1" tooltips="1" connect="1" arrows="1" fold="1" page="1" pageScale="1" pageWidth="850" pageHeight="1100" math="0" shadow="0">
      <root>
        <mxCell id="0" />
        <mxCell id="1" parent="0" />
        <mxCell id="u0Erxf0fojJ4FD15GasT-1" value="User &lt;i&gt;&lt;font face=&quot;Times New Roman&quot;&gt;u&lt;/font&gt;&lt;/i&gt;" style="shape=umlActor;verticalLabelPosition=bottom;verticalAlign=top;html=1;outlineConnect=0;fontSize=14;" parent="1" vertex="1">
          <mxGeometry x="66" y="259.5" width="30" height="60" as="geometry" />
        </mxCell>
        <mxCell id="u0Erxf0fojJ4FD15GasT-2" value="User &lt;font face=&quot;Times New Roman&quot;&gt;&lt;i&gt;v&lt;/i&gt;&lt;/font&gt;" style="shape=umlActor;verticalLabelPosition=bottom;verticalAlign=top;html=1;outlineConnect=0;fontSize=14;" parent="1" vertex="1">
          <mxGeometry x="292" y="182.5" width="30" height="60" as="geometry" />
        </mxCell>
        <mxCell id="u0Erxf0fojJ4FD15GasT-4" value="Item &lt;i&gt;&lt;font face=&quot;Times New Roman&quot;&gt;j&lt;/font&gt;&lt;/i&gt;" style="ellipse;whiteSpace=wrap;html=1;aspect=fixed;fontSize=14;" parent="1" vertex="1">
          <mxGeometry x="178" y="351.5" width="47" height="47" as="geometry" />
        </mxCell>
        <mxCell id="u0Erxf0fojJ4FD15GasT-6" value="Item &lt;i&gt;&lt;font face=&quot;Times New Roman&quot;&gt;i&lt;/font&gt;&lt;/i&gt;" style="ellipse;whiteSpace=wrap;html=1;aspect=fixed;fontSize=14;" parent="1" vertex="1">
          <mxGeometry x="169" y="277.5" width="47" height="47" as="geometry" />
        </mxCell>
        <mxCell id="u0Erxf0fojJ4FD15GasT-14" value="" style="endArrow=classic;html=1;rounded=0;fontSize=14;exitX=1;exitY=0.3333333333333333;exitDx=0;exitDy=0;exitPerimeter=0;entryX=0;entryY=0.5;entryDx=0;entryDy=0;strokeColor=#7EA6E0;" parent="1" source="u0Erxf0fojJ4FD15GasT-1" target="u0Erxf0fojJ4FD15GasT-6" edge="1">
          <mxGeometry width="50" height="50" relative="1" as="geometry">
            <mxPoint x="336" y="456.5" as="sourcePoint" />
            <mxPoint x="386" y="406.5" as="targetPoint" />
          </mxGeometry>
        </mxCell>
        <mxCell id="u0Erxf0fojJ4FD15GasT-15" value="" style="endArrow=classic;html=1;rounded=0;fontSize=14;exitX=1;exitY=0.3333333333333333;exitDx=0;exitDy=0;exitPerimeter=0;entryX=0;entryY=0.5;entryDx=0;entryDy=0;strokeColor=#7EA6E0;" parent="1" source="u0Erxf0fojJ4FD15GasT-1" target="u0Erxf0fojJ4FD15GasT-4" edge="1">
          <mxGeometry width="50" height="50" relative="1" as="geometry">
            <mxPoint x="82" y="277.5" as="sourcePoint" />
            <mxPoint x="179" y="311" as="targetPoint" />
          </mxGeometry>
        </mxCell>
        <mxCell id="u0Erxf0fojJ4FD15GasT-16" value="" style="endArrow=classic;html=1;rounded=0;fontSize=14;exitX=0;exitY=0.3333333333333333;exitDx=0;exitDy=0;exitPerimeter=0;entryX=1;entryY=0.5;entryDx=0;entryDy=0;strokeColor=#7EA6E0;" parent="1" source="u0Erxf0fojJ4FD15GasT-2" target="u0Erxf0fojJ4FD15GasT-6" edge="1">
          <mxGeometry width="50" height="50" relative="1" as="geometry">
            <mxPoint x="82" y="277.5" as="sourcePoint" />
            <mxPoint x="179" y="311" as="targetPoint" />
          </mxGeometry>
        </mxCell>
        <mxCell id="u0Erxf0fojJ4FD15GasT-17" value="" style="endArrow=classic;html=1;rounded=0;fontSize=14;entryX=1;entryY=0.5;entryDx=0;entryDy=0;strokeColor=#7EA6E0;" parent="1" target="u0Erxf0fojJ4FD15GasT-4" edge="1">
          <mxGeometry width="50" height="50" relative="1" as="geometry">
            <mxPoint x="293" y="203.5" as="sourcePoint" />
            <mxPoint x="189" y="321" as="targetPoint" />
          </mxGeometry>
        </mxCell>
        <mxCell id="u0Erxf0fojJ4FD15GasT-25" style="edgeStyle=orthogonalEdgeStyle;rounded=0;orthogonalLoop=1;jettySize=auto;html=1;exitX=1;exitY=0.5;exitDx=0;exitDy=0;strokeColor=#7EA6E0;fontSize=14;startArrow=none;startFill=0;endArrow=classic;endFill=1;" parent="1" source="u0Erxf0fojJ4FD15GasT-21" edge="1">
          <mxGeometry relative="1" as="geometry">
            <mxPoint x="564.5" y="362.5" as="targetPoint" />
          </mxGeometry>
        </mxCell>
        <mxCell id="u0Erxf0fojJ4FD15GasT-21" value="Item 1" style="ellipse;whiteSpace=wrap;html=1;aspect=fixed;fontSize=14;" parent="1" vertex="1">
          <mxGeometry x="471.5" y="338.5" width="47" height="47" as="geometry" />
        </mxCell>
        <mxCell id="u0Erxf0fojJ4FD15GasT-44" value="" style="edgeStyle=orthogonalEdgeStyle;rounded=0;orthogonalLoop=1;jettySize=auto;html=1;strokeColor=#7EA6E0;fontSize=14;startArrow=none;startFill=0;endArrow=classic;endFill=1;" parent="1" source="u0Erxf0fojJ4FD15GasT-26" edge="1">
          <mxGeometry relative="1" as="geometry">
            <mxPoint x="591.5" y="282" as="targetPoint" />
          </mxGeometry>
        </mxCell>
        <mxCell id="u0Erxf0fojJ4FD15GasT-26" value="User 1" style="shape=umlActor;verticalLabelPosition=bottom;verticalAlign=top;html=1;outlineConnect=0;fontSize=14;" parent="1" vertex="1">
          <mxGeometry x="576.5" y="332" width="30" height="60" as="geometry" />
        </mxCell>
        <mxCell id="u0Erxf0fojJ4FD15GasT-32" value="User 2" style="shape=umlActor;verticalLabelPosition=bottom;verticalAlign=top;html=1;outlineConnect=0;fontSize=14;" parent="1" vertex="1">
          <mxGeometry x="626.5" y="332" width="30" height="60" as="geometry" />
        </mxCell>
        <mxCell id="u0Erxf0fojJ4FD15GasT-37" value="User 3" style="shape=umlActor;verticalLabelPosition=bottom;verticalAlign=top;html=1;outlineConnect=0;fontSize=14;" parent="1" vertex="1">
          <mxGeometry x="675.5" y="332" width="30" height="60" as="geometry" />
        </mxCell>
        <mxCell id="u0Erxf0fojJ4FD15GasT-38" value="User 3" style="shape=umlActor;verticalLabelPosition=bottom;verticalAlign=top;html=1;outlineConnect=0;fontSize=14;" parent="1" vertex="1">
          <mxGeometry x="724.5" y="332" width="30" height="60" as="geometry" />
        </mxCell>
        <mxCell id="u0Erxf0fojJ4FD15GasT-45" value="Item 1,1" style="ellipse;whiteSpace=wrap;html=1;aspect=fixed;fontSize=14;" parent="1" vertex="1">
          <mxGeometry x="568" y="236" width="47" height="47" as="geometry" />
        </mxCell>
        <mxCell id="u0Erxf0fojJ4FD15GasT-46" value="Item 1,2" style="ellipse;whiteSpace=wrap;html=1;aspect=fixed;fontSize=14;" parent="1" vertex="1">
          <mxGeometry x="566.5" y="182.5" width="47" height="47" as="geometry" />
        </mxCell>
        <mxCell id="u0Erxf0fojJ4FD15GasT-47" value="Item 1,3" style="ellipse;whiteSpace=wrap;html=1;aspect=fixed;fontSize=14;" parent="1" vertex="1">
          <mxGeometry x="566.5" y="129" width="47" height="47" as="geometry" />
        </mxCell>
        <mxCell id="u0Erxf0fojJ4FD15GasT-48" value="" style="edgeStyle=orthogonalEdgeStyle;rounded=0;orthogonalLoop=1;jettySize=auto;html=1;strokeColor=#7EA6E0;fontSize=14;startArrow=none;startFill=0;endArrow=classic;endFill=1;" parent="1" edge="1">
          <mxGeometry relative="1" as="geometry">
            <mxPoint x="642.25" y="332" as="sourcePoint" />
            <mxPoint x="642.25" y="282" as="targetPoint" />
          </mxGeometry>
        </mxCell>
        <mxCell id="u0Erxf0fojJ4FD15GasT-49" value="Item 2,1" style="ellipse;whiteSpace=wrap;html=1;aspect=fixed;fontSize=14;" parent="1" vertex="1">
          <mxGeometry x="618.75" y="236" width="47" height="47" as="geometry" />
        </mxCell>
        <mxCell id="u0Erxf0fojJ4FD15GasT-50" value="Item 2,2" style="ellipse;whiteSpace=wrap;html=1;aspect=fixed;fontSize=14;" parent="1" vertex="1">
          <mxGeometry x="617.25" y="182.5" width="47" height="47" as="geometry" />
        </mxCell>
        <mxCell id="u0Erxf0fojJ4FD15GasT-51" value="Item 2,3" style="ellipse;whiteSpace=wrap;html=1;aspect=fixed;fontSize=14;" parent="1" vertex="1">
          <mxGeometry x="617.25" y="129" width="47" height="47" as="geometry" />
        </mxCell>
        <mxCell id="u0Erxf0fojJ4FD15GasT-52" value="" style="edgeStyle=orthogonalEdgeStyle;rounded=0;orthogonalLoop=1;jettySize=auto;html=1;strokeColor=#7EA6E0;fontSize=14;startArrow=none;startFill=0;endArrow=classic;endFill=1;" parent="1" edge="1">
          <mxGeometry relative="1" as="geometry">
            <mxPoint x="691.25" y="332" as="sourcePoint" />
            <mxPoint x="691.25" y="282" as="targetPoint" />
          </mxGeometry>
        </mxCell>
        <mxCell id="u0Erxf0fojJ4FD15GasT-53" value="Item 3,1" style="ellipse;whiteSpace=wrap;html=1;aspect=fixed;fontSize=14;" parent="1" vertex="1">
          <mxGeometry x="667.75" y="236" width="47" height="47" as="geometry" />
        </mxCell>
        <mxCell id="u0Erxf0fojJ4FD15GasT-54" value="Item 3,2" style="ellipse;whiteSpace=wrap;html=1;aspect=fixed;fontSize=14;" parent="1" vertex="1">
          <mxGeometry x="666.25" y="182.5" width="47" height="47" as="geometry" />
        </mxCell>
        <mxCell id="u0Erxf0fojJ4FD15GasT-55" value="Item 3,3" style="ellipse;whiteSpace=wrap;html=1;aspect=fixed;fontSize=14;" parent="1" vertex="1">
          <mxGeometry x="666.25" y="129" width="47" height="47" as="geometry" />
        </mxCell>
        <mxCell id="u0Erxf0fojJ4FD15GasT-56" value="" style="edgeStyle=orthogonalEdgeStyle;rounded=0;orthogonalLoop=1;jettySize=auto;html=1;strokeColor=#7EA6E0;fontSize=14;startArrow=none;startFill=0;endArrow=classic;endFill=1;" parent="1" edge="1">
          <mxGeometry relative="1" as="geometry">
            <mxPoint x="740.25" y="332" as="sourcePoint" />
            <mxPoint x="740.25" y="282" as="targetPoint" />
          </mxGeometry>
        </mxCell>
        <mxCell id="u0Erxf0fojJ4FD15GasT-57" value="Item 4,1" style="ellipse;whiteSpace=wrap;html=1;aspect=fixed;fontSize=14;" parent="1" vertex="1">
          <mxGeometry x="716.75" y="236" width="47" height="47" as="geometry" />
        </mxCell>
        <mxCell id="u0Erxf0fojJ4FD15GasT-58" value="Item 4,2" style="ellipse;whiteSpace=wrap;html=1;aspect=fixed;fontSize=14;" parent="1" vertex="1">
          <mxGeometry x="715.25" y="182.5" width="47" height="47" as="geometry" />
        </mxCell>
        <mxCell id="u0Erxf0fojJ4FD15GasT-59" value="Item 4,3" style="ellipse;whiteSpace=wrap;html=1;aspect=fixed;fontSize=14;" parent="1" vertex="1">
          <mxGeometry x="715.25" y="129" width="47" height="47" as="geometry" />
        </mxCell>
        <mxCell id="u0Erxf0fojJ4FD15GasT-64" value="Trigger" style="text;html=1;align=center;verticalAlign=middle;resizable=0;points=[];autosize=1;strokeColor=none;fillColor=none;fontSize=14;" parent="1" vertex="1">
          <mxGeometry x="464" y="392" width="62" height="29" as="geometry" />
        </mxCell>
        <mxCell id="u0Erxf0fojJ4FD15GasT-65" value="" style="shape=curlyBracket;whiteSpace=wrap;html=1;rounded=1;fontSize=14;rotation=-90;" parent="1" vertex="1">
          <mxGeometry x="686.75" y="310" width="20" height="256" as="geometry" />
        </mxCell>
        <mxCell id="u0Erxf0fojJ4FD15GasT-66" value="... ..." style="text;html=1;align=center;verticalAlign=middle;resizable=0;points=[];autosize=1;strokeColor=none;fillColor=none;fontSize=14;" parent="1" vertex="1">
          <mxGeometry x="780.5" y="338.5" width="45" height="29" as="geometry" />
        </mxCell>
        <mxCell id="u0Erxf0fojJ4FD15GasT-67" value="Interacted Users (sampled)" style="text;html=1;align=center;verticalAlign=middle;resizable=0;points=[];autosize=1;strokeColor=none;fillColor=none;fontSize=14;" parent="1" vertex="1">
          <mxGeometry x="603.75" y="450" width="187" height="29" as="geometry" />
        </mxCell>
        <mxCell id="u0Erxf0fojJ4FD15GasT-68" value="" style="shape=curlyBracket;whiteSpace=wrap;html=1;rounded=1;fontSize=14;" parent="1" vertex="1">
          <mxGeometry x="531.5" y="83" width="20" height="200" as="geometry" />
        </mxCell>
        <mxCell id="u0Erxf0fojJ4FD15GasT-69" value="... ..." style="text;html=1;align=center;verticalAlign=middle;resizable=0;points=[];autosize=1;strokeColor=none;fillColor=none;fontSize=14;rotation=-90;" parent="1" vertex="1">
          <mxGeometry x="561.5" y="88" width="45" height="29" as="geometry" />
        </mxCell>
        <mxCell id="u0Erxf0fojJ4FD15GasT-70" value="... ..." style="text;html=1;align=center;verticalAlign=middle;resizable=0;points=[];autosize=1;strokeColor=none;fillColor=none;fontSize=14;rotation=-90;" parent="1" vertex="1">
          <mxGeometry x="615" y="88" width="45" height="29" as="geometry" />
        </mxCell>
        <mxCell id="u0Erxf0fojJ4FD15GasT-71" value="... ..." style="text;html=1;align=center;verticalAlign=middle;resizable=0;points=[];autosize=1;strokeColor=none;fillColor=none;fontSize=14;rotation=-90;" parent="1" vertex="1">
          <mxGeometry x="663.25" y="88" width="45" height="29" as="geometry" />
        </mxCell>
        <mxCell id="u0Erxf0fojJ4FD15GasT-72" value="... ..." style="text;html=1;align=center;verticalAlign=middle;resizable=0;points=[];autosize=1;strokeColor=none;fillColor=none;fontSize=14;rotation=-90;" parent="1" vertex="1">
          <mxGeometry x="716.75" y="88" width="45" height="29" as="geometry" />
        </mxCell>
        <mxCell id="u0Erxf0fojJ4FD15GasT-73" value="Interacted&lt;br&gt;&amp;nbsp;Items&lt;br&gt;(Recalled &lt;br&gt;Items)" style="text;html=1;align=center;verticalAlign=middle;resizable=0;points=[];autosize=1;strokeColor=none;fillColor=none;fontSize=14;rotation=0;" parent="1" vertex="1">
          <mxGeometry x="455" y="144" width="80" height="79" as="geometry" />
        </mxCell>
        <mxCell id="u0Erxf0fojJ4FD15GasT-76" value="" style="rounded=1;whiteSpace=wrap;html=1;fontFamily=Times New Roman;fontSize=14;strokeWidth=3;fillColor=#FFFFFF;strokeColor=#C73500;fontColor=#000000;" parent="1" vertex="1">
          <mxGeometry x="252" y="585" width="182" height="379" as="geometry" />
        </mxCell>
        <mxCell id="u0Erxf0fojJ4FD15GasT-102" style="edgeStyle=orthogonalEdgeStyle;rounded=0;orthogonalLoop=1;jettySize=auto;html=1;exitX=1;exitY=0.5;exitDx=0;exitDy=0;strokeColor=#000000;fontFamily=Times New Roman;fontSize=14;startArrow=none;startFill=0;endArrow=classic;endFill=1;entryX=0;entryY=0.5;entryDx=0;entryDy=0;entryPerimeter=0;" parent="1" source="u0Erxf0fojJ4FD15GasT-77" target="u0Erxf0fojJ4FD15GasT-115" edge="1">
          <mxGeometry relative="1" as="geometry">
            <mxPoint x="515" y="643.5" as="targetPoint" />
          </mxGeometry>
        </mxCell>
        <mxCell id="u0Erxf0fojJ4FD15GasT-103" value="Realtime &lt;br&gt;Features" style="edgeLabel;html=1;align=center;verticalAlign=middle;resizable=0;points=[];fontSize=14;fontFamily=Times New Roman;" parent="u0Erxf0fojJ4FD15GasT-102" vertex="1" connectable="0">
          <mxGeometry x="0.2626" y="4" relative="1" as="geometry">
            <mxPoint x="20" y="25" as="offset" />
          </mxGeometry>
        </mxCell>
        <mxCell id="u0Erxf0fojJ4FD15GasT-77" value="Items" style="rounded=1;whiteSpace=wrap;html=1;fontFamily=Times New Roman;fontSize=14;" parent="1" vertex="1">
          <mxGeometry x="277" y="623" width="61" height="41" as="geometry" />
        </mxCell>
        <mxCell id="u0Erxf0fojJ4FD15GasT-78" value="Items" style="rounded=1;whiteSpace=wrap;html=1;fontFamily=Times New Roman;fontSize=14;" parent="1" vertex="1">
          <mxGeometry x="350" y="623" width="61" height="41" as="geometry" />
        </mxCell>
        <mxCell id="u0Erxf0fojJ4FD15GasT-79" value="Items" style="rounded=1;whiteSpace=wrap;html=1;fontFamily=Times New Roman;fontSize=14;" parent="1" vertex="1">
          <mxGeometry x="277" y="672" width="61" height="41" as="geometry" />
        </mxCell>
        <mxCell id="u0Erxf0fojJ4FD15GasT-80" value="Ads" style="rounded=1;whiteSpace=wrap;html=1;fontFamily=Times New Roman;fontSize=14;" parent="1" vertex="1">
          <mxGeometry x="350" y="672" width="61" height="41" as="geometry" />
        </mxCell>
        <mxCell id="u0Erxf0fojJ4FD15GasT-84" value="Ads" style="rounded=1;whiteSpace=wrap;html=1;fontFamily=Times New Roman;fontSize=14;" parent="1" vertex="1">
          <mxGeometry x="349" y="851" width="61" height="41" as="geometry" />
        </mxCell>
        <mxCell id="u0Erxf0fojJ4FD15GasT-85" value="Shopee App" style="text;html=1;align=center;verticalAlign=middle;resizable=0;points=[];autosize=1;strokeColor=none;fillColor=none;fontSize=14;fontFamily=Times New Roman;" parent="1" vertex="1">
          <mxGeometry x="304" y="585" width="86" height="29" as="geometry" />
        </mxCell>
        <mxCell id="u0Erxf0fojJ4FD15GasT-90" style="edgeStyle=orthogonalEdgeStyle;rounded=0;orthogonalLoop=1;jettySize=auto;html=1;exitX=1;exitY=0.3333333333333333;exitDx=0;exitDy=0;exitPerimeter=0;entryX=0;entryY=0.5;entryDx=0;entryDy=0;strokeColor=#7EA6E0;fontFamily=Times New Roman;fontSize=14;startArrow=none;startFill=0;endArrow=classic;endFill=1;" parent="1" source="u0Erxf0fojJ4FD15GasT-86" target="u0Erxf0fojJ4FD15GasT-77" edge="1">
          <mxGeometry relative="1" as="geometry" />
        </mxCell>
        <mxCell id="u0Erxf0fojJ4FD15GasT-99" value="Click" style="edgeLabel;html=1;align=center;verticalAlign=middle;resizable=0;points=[];fontSize=14;fontFamily=Times New Roman;" parent="u0Erxf0fojJ4FD15GasT-90" vertex="1" connectable="0">
          <mxGeometry x="-0.3305" y="2" relative="1" as="geometry">
            <mxPoint x="-4" y="-12" as="offset" />
          </mxGeometry>
        </mxCell>
        <mxCell id="u0Erxf0fojJ4FD15GasT-86" value="User" style="shape=umlActor;verticalLabelPosition=bottom;verticalAlign=top;html=1;outlineConnect=0;strokeWidth=1;fontFamily=Times New Roman;fontSize=14;fillColor=#FFFFFF;" parent="1" vertex="1">
          <mxGeometry x="131" y="623" width="30" height="60" as="geometry" />
        </mxCell>
        <mxCell id="u0Erxf0fojJ4FD15GasT-92" value="Scoring down&lt;br&gt;to NEXT PAGE" style="text;html=1;align=center;verticalAlign=middle;resizable=0;points=[];autosize=1;strokeColor=none;fillColor=none;fontSize=14;fontFamily=Times New Roman;" parent="1" vertex="1">
          <mxGeometry x="100" y="752" width="108" height="46" as="geometry" />
        </mxCell>
        <mxCell id="u0Erxf0fojJ4FD15GasT-93" value="... ..." style="text;html=1;align=center;verticalAlign=middle;resizable=0;points=[];autosize=1;strokeColor=none;fillColor=none;fontSize=14;fontFamily=Times New Roman;rotation=90;" parent="1" vertex="1">
          <mxGeometry x="325.5" y="760" width="43" height="29" as="geometry" />
        </mxCell>
        <mxCell id="u0Erxf0fojJ4FD15GasT-97" style="edgeStyle=orthogonalEdgeStyle;rounded=0;orthogonalLoop=1;jettySize=auto;html=1;exitX=1;exitY=0.3333333333333333;exitDx=0;exitDy=0;exitPerimeter=0;entryX=0;entryY=0.5;entryDx=0;entryDy=0;strokeColor=#7EA6E0;fontFamily=Times New Roman;fontSize=14;startArrow=none;startFill=0;endArrow=classic;endFill=1;dashed=1;" parent="1" source="u0Erxf0fojJ4FD15GasT-94" target="u0Erxf0fojJ4FD15GasT-84" edge="1">
          <mxGeometry relative="1" as="geometry" />
        </mxCell>
        <mxCell id="u0Erxf0fojJ4FD15GasT-98" value="Impression" style="edgeLabel;html=1;align=center;verticalAlign=middle;resizable=0;points=[];fontSize=14;fontFamily=Times New Roman;" parent="u0Erxf0fojJ4FD15GasT-97" vertex="1" connectable="0">
          <mxGeometry x="-0.374" y="-1" relative="1" as="geometry">
            <mxPoint x="-11" y="-15" as="offset" />
          </mxGeometry>
        </mxCell>
        <mxCell id="u0Erxf0fojJ4FD15GasT-94" value="User" style="shape=umlActor;verticalLabelPosition=bottom;verticalAlign=top;html=1;outlineConnect=0;strokeWidth=1;fontFamily=Times New Roman;fontSize=14;fillColor=#FFFFFF;" parent="1" vertex="1">
          <mxGeometry x="131" y="851" width="30" height="60" as="geometry" />
        </mxCell>
        <mxCell id="u0Erxf0fojJ4FD15GasT-108" style="edgeStyle=orthogonalEdgeStyle;rounded=0;orthogonalLoop=1;jettySize=auto;html=1;exitX=0.5;exitY=1;exitDx=0;exitDy=0;entryX=0.5;entryY=0;entryDx=0;entryDy=0;strokeColor=#000000;fontFamily=Times New Roman;fontSize=14;startArrow=none;startFill=0;endArrow=classic;endFill=1;" parent="1" target="u0Erxf0fojJ4FD15GasT-104" edge="1">
          <mxGeometry relative="1" as="geometry">
            <mxPoint x="605" y="676" as="sourcePoint" />
          </mxGeometry>
        </mxCell>
        <mxCell id="u0Erxf0fojJ4FD15GasT-114" style="edgeStyle=orthogonalEdgeStyle;rounded=0;orthogonalLoop=1;jettySize=auto;html=1;exitX=1;exitY=0.5;exitDx=0;exitDy=0;entryX=1;entryY=0.5;entryDx=0;entryDy=0;strokeColor=#000000;fontFamily=Times New Roman;fontSize=14;startArrow=none;startFill=0;endArrow=classic;endFill=1;exitPerimeter=0;" parent="1" source="u0Erxf0fojJ4FD15GasT-115" target="u0Erxf0fojJ4FD15GasT-110" edge="1">
          <mxGeometry relative="1" as="geometry">
            <mxPoint x="695" y="643.5" as="sourcePoint" />
            <Array as="points">
              <mxPoint x="747" y="644" />
              <mxPoint x="747" y="872" />
            </Array>
          </mxGeometry>
        </mxCell>
        <mxCell id="u0Erxf0fojJ4FD15GasT-112" style="edgeStyle=orthogonalEdgeStyle;rounded=0;orthogonalLoop=1;jettySize=auto;html=1;exitX=0.5;exitY=1;exitDx=0;exitDy=0;entryX=0.5;entryY=0;entryDx=0;entryDy=0;strokeColor=#000000;fontFamily=Times New Roman;fontSize=14;startArrow=none;startFill=0;endArrow=classic;endFill=1;" parent="1" source="u0Erxf0fojJ4FD15GasT-104" target="u0Erxf0fojJ4FD15GasT-110" edge="1">
          <mxGeometry relative="1" as="geometry" />
        </mxCell>
        <mxCell id="u0Erxf0fojJ4FD15GasT-104" value="" style="rounded=1;whiteSpace=wrap;html=1;fontFamily=Times New Roman;fontSize=14;strokeWidth=1;fillColor=#FFFFFF;" parent="1" vertex="1">
          <mxGeometry x="515" y="713" width="180" height="90" as="geometry" />
        </mxCell>
        <mxCell id="u0Erxf0fojJ4FD15GasT-106" value="U2I2I Recall" style="rounded=1;whiteSpace=wrap;html=1;fontFamily=Times New Roman;fontSize=14;" parent="1" vertex="1">
          <mxGeometry x="534.5" y="754" width="61" height="41" as="geometry" />
        </mxCell>
        <mxCell id="u0Erxf0fojJ4FD15GasT-107" value="Vector Recall" style="rounded=1;whiteSpace=wrap;html=1;fontFamily=Times New Roman;fontSize=14;" parent="1" vertex="1">
          <mxGeometry x="614.5" y="754" width="61" height="41" as="geometry" />
        </mxCell>
        <mxCell id="u0Erxf0fojJ4FD15GasT-109" value="Recall Service" style="text;html=1;align=center;verticalAlign=middle;resizable=0;points=[];autosize=1;strokeColor=none;fillColor=none;fontSize=14;fontFamily=Times New Roman;" parent="1" vertex="1">
          <mxGeometry x="555.5" y="713" width="99" height="29" as="geometry" />
        </mxCell>
        <mxCell id="u0Erxf0fojJ4FD15GasT-113" style="edgeStyle=orthogonalEdgeStyle;rounded=0;orthogonalLoop=1;jettySize=auto;html=1;exitX=0;exitY=0.5;exitDx=0;exitDy=0;strokeColor=#000000;fontFamily=Times New Roman;fontSize=14;startArrow=none;startFill=0;endArrow=classic;endFill=1;" parent="1" source="u0Erxf0fojJ4FD15GasT-110" target="u0Erxf0fojJ4FD15GasT-84" edge="1">
          <mxGeometry relative="1" as="geometry" />
        </mxCell>
        <mxCell id="u0Erxf0fojJ4FD15GasT-110" value="Ranking Service" style="rounded=1;whiteSpace=wrap;html=1;fontFamily=Times New Roman;fontSize=14;strokeWidth=1;fillColor=#FFFFFF;" parent="1" vertex="1">
          <mxGeometry x="519.5" y="839" width="180" height="65" as="geometry" />
        </mxCell>
        <mxCell id="u0Erxf0fojJ4FD15GasT-115" value="Feature Platform" style="shape=cylinder3;whiteSpace=wrap;html=1;boundedLbl=1;backgroundOutline=1;size=15;strokeWidth=1;fontFamily=Times New Roman;fontSize=14;fillColor=#FFFFFF;" parent="1" vertex="1">
          <mxGeometry x="526.87" y="608" width="156.25" height="71" as="geometry" />
        </mxCell>
        <mxCell id="u0Erxf0fojJ4FD15GasT-122" style="edgeStyle=orthogonalEdgeStyle;rounded=0;orthogonalLoop=1;jettySize=auto;html=1;exitX=1;exitY=0.25;exitDx=0;exitDy=0;strokeColor=#000000;fontFamily=Times New Roman;fontSize=14;startArrow=classic;startFill=1;endArrow=none;endFill=0;" parent="1" source="u0Erxf0fojJ4FD15GasT-116" edge="1">
          <mxGeometry relative="1" as="geometry">
            <mxPoint x="1395" y="718" as="targetPoint" />
          </mxGeometry>
        </mxCell>
        <mxCell id="u0Erxf0fojJ4FD15GasT-124" style="edgeStyle=orthogonalEdgeStyle;rounded=0;orthogonalLoop=1;jettySize=auto;html=1;exitX=1;exitY=0.75;exitDx=0;exitDy=0;strokeColor=#000000;fontFamily=Times New Roman;fontSize=14;startArrow=none;startFill=0;endArrow=classicThin;endFill=1;" parent="1" source="u0Erxf0fojJ4FD15GasT-116" edge="1">
          <mxGeometry relative="1" as="geometry">
            <mxPoint x="1395" y="754" as="targetPoint" />
          </mxGeometry>
        </mxCell>
        <mxCell id="u0Erxf0fojJ4FD15GasT-116" value="Recall Service" style="rounded=1;whiteSpace=wrap;html=1;fontFamily=Times New Roman;fontSize=14;strokeWidth=1;fillColor=#FFFFFF;" parent="1" vertex="1">
          <mxGeometry x="1130" y="699" width="129" height="73" as="geometry" />
        </mxCell>
        <mxCell id="u0Erxf0fojJ4FD15GasT-117" value="Item to Item (I2I) Cache" style="shape=cylinder3;whiteSpace=wrap;html=1;boundedLbl=1;backgroundOutline=1;size=15;strokeWidth=1;fontFamily=Times New Roman;fontSize=14;fillColor=#FFFFFF;" parent="1" vertex="1">
          <mxGeometry x="1150.59" y="856" width="88" height="77" as="geometry" />
        </mxCell>
        <mxCell id="u0Erxf0fojJ4FD15GasT-118" value="Feature Platform" style="shape=cylinder3;whiteSpace=wrap;html=1;boundedLbl=1;backgroundOutline=1;size=15;strokeWidth=1;fontFamily=Times New Roman;fontSize=14;fillColor=#FFFFFF;" parent="1" vertex="1">
          <mxGeometry x="1138.18" y="541" width="112.82" height="71" as="geometry" />
        </mxCell>
        <mxCell id="u0Erxf0fojJ4FD15GasT-125" value="User Request" style="text;html=1;align=center;verticalAlign=middle;resizable=0;points=[];autosize=1;strokeColor=none;fillColor=none;fontSize=14;fontFamily=Times New Roman;strokeWidth=1;" parent="1" vertex="1">
          <mxGeometry x="1275" y="692" width="93" height="29" as="geometry" />
        </mxCell>
        <mxCell id="u0Erxf0fojJ4FD15GasT-126" value="Recalled Items" style="text;html=1;align=center;verticalAlign=middle;resizable=0;points=[];autosize=1;strokeColor=none;fillColor=none;fontSize=14;fontFamily=Times New Roman;" parent="1" vertex="1">
          <mxGeometry x="1275" y="725" width="102" height="29" as="geometry" />
        </mxCell>
        <mxCell id="u0Erxf0fojJ4FD15GasT-130" value="" style="endArrow=classic;html=1;rounded=0;strokeColor=#000000;fontFamily=Times New Roman;fontSize=14;" parent="1" edge="1">
          <mxGeometry width="50" height="50" relative="1" as="geometry">
            <mxPoint x="1186" y="699" as="sourcePoint" />
            <mxPoint x="1186" y="613" as="targetPoint" />
          </mxGeometry>
        </mxCell>
        <mxCell id="u0Erxf0fojJ4FD15GasT-132" value="User ID" style="edgeLabel;html=1;align=center;verticalAlign=middle;resizable=0;points=[];fontSize=14;fontFamily=Times New Roman;" parent="u0Erxf0fojJ4FD15GasT-130" vertex="1" connectable="0">
          <mxGeometry y="-2" relative="1" as="geometry">
            <mxPoint x="-32" y="-1" as="offset" />
          </mxGeometry>
        </mxCell>
        <mxCell id="u0Erxf0fojJ4FD15GasT-131" value="" style="endArrow=none;html=1;rounded=0;strokeColor=#000000;fontFamily=Times New Roman;fontSize=14;startArrow=classic;startFill=1;endFill=0;" parent="1" edge="1">
          <mxGeometry width="50" height="50" relative="1" as="geometry">
            <mxPoint x="1205" y="699" as="sourcePoint" />
            <mxPoint x="1205" y="613" as="targetPoint" />
          </mxGeometry>
        </mxCell>
        <mxCell id="u0Erxf0fojJ4FD15GasT-133" value="Realtime User Behaviour&lt;br&gt;(Trigger Items)" style="edgeLabel;html=1;align=center;verticalAlign=middle;resizable=0;points=[];fontSize=14;fontFamily=Times New Roman;" parent="u0Erxf0fojJ4FD15GasT-131" vertex="1" connectable="0">
          <mxGeometry x="0.0299" y="3" relative="1" as="geometry">
            <mxPoint x="75" as="offset" />
          </mxGeometry>
        </mxCell>
        <mxCell id="u0Erxf0fojJ4FD15GasT-138" value="" style="endArrow=classic;html=1;rounded=0;strokeColor=#000000;fontFamily=Times New Roman;fontSize=14;" parent="1" edge="1">
          <mxGeometry width="50" height="50" relative="1" as="geometry">
            <mxPoint x="1183" y="855" as="sourcePoint" />
            <mxPoint x="1182.59" y="772.5" as="targetPoint" />
          </mxGeometry>
        </mxCell>
        <mxCell id="u0Erxf0fojJ4FD15GasT-139" value="Recalled Items" style="edgeLabel;html=1;align=center;verticalAlign=middle;resizable=0;points=[];fontSize=14;fontFamily=Times New Roman;" parent="u0Erxf0fojJ4FD15GasT-138" vertex="1" connectable="0">
          <mxGeometry y="-2" relative="1" as="geometry">
            <mxPoint x="-51" y="1" as="offset" />
          </mxGeometry>
        </mxCell>
        <mxCell id="u0Erxf0fojJ4FD15GasT-140" value="" style="endArrow=none;html=1;rounded=0;strokeColor=#000000;fontFamily=Times New Roman;fontSize=14;startArrow=classic;startFill=1;endFill=0;" parent="1" edge="1">
          <mxGeometry width="50" height="50" relative="1" as="geometry">
            <mxPoint x="1202" y="855" as="sourcePoint" />
            <mxPoint x="1201.59" y="772.5" as="targetPoint" />
          </mxGeometry>
        </mxCell>
        <mxCell id="u0Erxf0fojJ4FD15GasT-141" value="Trigger Items" style="edgeLabel;html=1;align=center;verticalAlign=middle;resizable=0;points=[];fontSize=14;fontFamily=Times New Roman;" parent="u0Erxf0fojJ4FD15GasT-140" vertex="1" connectable="0">
          <mxGeometry x="0.0299" y="3" relative="1" as="geometry">
            <mxPoint x="43" y="2" as="offset" />
          </mxGeometry>
        </mxCell>
        <mxCell id="u0Erxf0fojJ4FD15GasT-143" style="edgeStyle=orthogonalEdgeStyle;rounded=0;orthogonalLoop=1;jettySize=auto;html=1;exitX=1;exitY=0.5;exitDx=0;exitDy=0;entryX=0;entryY=0.5;entryDx=0;entryDy=0;entryPerimeter=0;strokeColor=#000000;fontFamily=Times New Roman;fontSize=14;startArrow=none;startFill=0;endArrow=classic;endFill=1;" parent="1" source="u0Erxf0fojJ4FD15GasT-142" target="u0Erxf0fojJ4FD15GasT-117" edge="1">
          <mxGeometry relative="1" as="geometry" />
        </mxCell>
        <mxCell id="u0Erxf0fojJ4FD15GasT-142" value="Swing v3 &lt;br&gt;Offline Job" style="rounded=1;whiteSpace=wrap;html=1;strokeWidth=1;fontFamily=Times New Roman;fontSize=14;fillColor=#FFFFFF;" parent="1" vertex="1">
          <mxGeometry x="945" y="864.5" width="120" height="60" as="geometry" />
        </mxCell>
        <mxCell id="9sf4GGjI4ObgHVBmXjR2-1" value="User" style="shape=umlActor;verticalLabelPosition=bottom;verticalAlign=top;html=1;outlineConnect=0;" vertex="1" parent="1">
          <mxGeometry x="1415" y="700" width="30" height="60" as="geometry" />
        </mxCell>
      </root>
    </mxGraphModel>
  </diagram>
  <diagram id="p7U8dktFHHN_mfCHngET" name="bfq">
    <mxGraphModel dx="1298" dy="841" grid="0" gridSize="10" guides="1" tooltips="1" connect="1" arrows="1" fold="1" page="1" pageScale="1" pageWidth="850" pageHeight="1100" math="0" shadow="0">
      <root>
        <mxCell id="0" />
        <mxCell id="1" parent="0" />
        <mxCell id="jWrsllp-RiBqLDIkcmEO-35" value="" style="rounded=0;whiteSpace=wrap;html=1;glass=0;sketch=0;strokeWidth=1;fontFamily=Times New Roman;fontSize=14;fillColor=#FFFFFF;dashed=1;" vertex="1" parent="1">
          <mxGeometry x="425" y="197" width="316" height="370" as="geometry" />
        </mxCell>
        <mxCell id="jWrsllp-RiBqLDIkcmEO-30" value="" style="rounded=0;whiteSpace=wrap;html=1;glass=0;sketch=0;strokeWidth=1;fontFamily=Times New Roman;fontSize=14;fillColor=#FFFFFF;dashed=1;" vertex="1" parent="1">
          <mxGeometry x="26" y="197" width="394" height="370" as="geometry" />
        </mxCell>
        <mxCell id="jWrsllp-RiBqLDIkcmEO-6" style="edgeStyle=orthogonalEdgeStyle;rounded=0;orthogonalLoop=1;jettySize=auto;html=1;exitX=0.5;exitY=1;exitDx=0;exitDy=0;entryX=0.5;entryY=0;entryDx=0;entryDy=0;strokeColor=#000000;fontFamily=Times New Roman;fontSize=14;startArrow=none;startFill=0;endArrow=classic;endFill=1;" edge="1" parent="1" source="jWrsllp-RiBqLDIkcmEO-1" target="jWrsllp-RiBqLDIkcmEO-5">
          <mxGeometry relative="1" as="geometry" />
        </mxCell>
        <mxCell id="jWrsllp-RiBqLDIkcmEO-1" value="Tracking Log" style="rounded=0;whiteSpace=wrap;html=1;strokeWidth=1;fontFamily=Times New Roman;fontSize=14;fillColor=#FFFFFF;glass=0;" vertex="1" parent="1">
          <mxGeometry x="208" y="227" width="120" height="36" as="geometry" />
        </mxCell>
        <mxCell id="jWrsllp-RiBqLDIkcmEO-8" style="edgeStyle=orthogonalEdgeStyle;rounded=0;orthogonalLoop=1;jettySize=auto;html=1;exitX=0.5;exitY=1;exitDx=0;exitDy=0;strokeColor=#000000;fontFamily=Times New Roman;fontSize=14;startArrow=none;startFill=0;endArrow=classic;endFill=1;" edge="1" parent="1" source="jWrsllp-RiBqLDIkcmEO-5" target="jWrsllp-RiBqLDIkcmEO-7">
          <mxGeometry relative="1" as="geometry" />
        </mxCell>
        <mxCell id="jWrsllp-RiBqLDIkcmEO-5" value="Daily Statistics" style="rounded=0;whiteSpace=wrap;html=1;strokeWidth=1;fontFamily=Times New Roman;fontSize=14;fillColor=#FFFFFF;glass=0;sketch=0;" vertex="1" parent="1">
          <mxGeometry x="208" y="320" width="120" height="45" as="geometry" />
        </mxCell>
        <mxCell id="jWrsllp-RiBqLDIkcmEO-12" style="edgeStyle=orthogonalEdgeStyle;rounded=0;orthogonalLoop=1;jettySize=auto;html=1;exitX=0.5;exitY=1;exitDx=0;exitDy=0;strokeColor=#000000;fontFamily=Times New Roman;fontSize=14;startArrow=none;startFill=0;endArrow=classic;endFill=1;" edge="1" parent="1" source="jWrsllp-RiBqLDIkcmEO-7" target="jWrsllp-RiBqLDIkcmEO-11">
          <mxGeometry relative="1" as="geometry" />
        </mxCell>
        <mxCell id="jWrsllp-RiBqLDIkcmEO-7" value="Aggregated Statistics" style="rounded=0;whiteSpace=wrap;html=1;strokeWidth=1;fontFamily=Times New Roman;fontSize=14;fillColor=#FFFFFF;" vertex="1" parent="1">
          <mxGeometry x="208" y="403" width="120" height="45" as="geometry" />
        </mxCell>
        <mxCell id="jWrsllp-RiBqLDIkcmEO-10" style="edgeStyle=orthogonalEdgeStyle;rounded=0;orthogonalLoop=1;jettySize=auto;html=1;exitX=1;exitY=0.5;exitDx=0;exitDy=0;entryX=0;entryY=0.5;entryDx=0;entryDy=0;strokeColor=#000000;fontFamily=Times New Roman;fontSize=14;startArrow=none;startFill=0;endArrow=classic;endFill=1;" edge="1" parent="1" source="jWrsllp-RiBqLDIkcmEO-9" target="jWrsllp-RiBqLDIkcmEO-7">
          <mxGeometry relative="1" as="geometry" />
        </mxCell>
        <mxCell id="jWrsllp-RiBqLDIkcmEO-9" value="Aggregated Statistics (Yesterday)" style="rounded=0;whiteSpace=wrap;html=1;strokeWidth=1;fontFamily=Times New Roman;fontSize=14;fillColor=#FFFFFF;dashed=1;" vertex="1" parent="1">
          <mxGeometry x="31" y="403" width="130" height="45" as="geometry" />
        </mxCell>
        <mxCell id="jWrsllp-RiBqLDIkcmEO-32" style="edgeStyle=orthogonalEdgeStyle;rounded=0;orthogonalLoop=1;jettySize=auto;html=1;exitX=1;exitY=0.5;exitDx=0;exitDy=0;entryX=0;entryY=0.5;entryDx=0;entryDy=0;strokeColor=#000000;fontFamily=Times New Roman;fontSize=14;startArrow=none;startFill=0;endArrow=classic;endFill=1;" edge="1" parent="1" source="jWrsllp-RiBqLDIkcmEO-11" target="jWrsllp-RiBqLDIkcmEO-31">
          <mxGeometry relative="1" as="geometry" />
        </mxCell>
        <mxCell id="jWrsllp-RiBqLDIkcmEO-11" value="Item to Hashes Table" style="rounded=0;whiteSpace=wrap;html=1;strokeWidth=1;fontFamily=Times New Roman;fontSize=14;fillColor=#FFFFFF;" vertex="1" parent="1">
          <mxGeometry x="208" y="496" width="120" height="45" as="geometry" />
        </mxCell>
        <mxCell id="jWrsllp-RiBqLDIkcmEO-16" value="" style="edgeStyle=orthogonalEdgeStyle;rounded=0;orthogonalLoop=1;jettySize=auto;html=1;strokeColor=#000000;fontFamily=Times New Roman;fontSize=14;startArrow=none;startFill=0;endArrow=classic;endFill=1;" edge="1" parent="1">
          <mxGeometry relative="1" as="geometry">
            <mxPoint x="579" y="496" as="sourcePoint" />
            <mxPoint x="579" y="416" as="targetPoint" />
          </mxGeometry>
        </mxCell>
        <mxCell id="jWrsllp-RiBqLDIkcmEO-19" value="Recalled Ads" style="edgeLabel;html=1;align=center;verticalAlign=middle;resizable=0;points=[];fontSize=14;fontFamily=Times New Roman;" vertex="1" connectable="0" parent="jWrsllp-RiBqLDIkcmEO-16">
          <mxGeometry x="0.125" y="2" relative="1" as="geometry">
            <mxPoint x="-41" y="-3" as="offset" />
          </mxGeometry>
        </mxCell>
        <mxCell id="jWrsllp-RiBqLDIkcmEO-13" value="Inverted Indexer&lt;br&gt;(ES or Vespa)" style="rounded=1;whiteSpace=wrap;html=1;strokeWidth=1;fontFamily=Times New Roman;fontSize=14;fillColor=#FFFFFF;" vertex="1" parent="1">
          <mxGeometry x="525" y="496" width="120" height="45" as="geometry" />
        </mxCell>
        <mxCell id="jWrsllp-RiBqLDIkcmEO-15" value="Recall Service" style="rounded=1;whiteSpace=wrap;html=1;strokeWidth=1;fontFamily=Times New Roman;fontSize=14;fillColor=#FFFFFF;" vertex="1" parent="1">
          <mxGeometry x="525" y="371" width="120" height="45" as="geometry" />
        </mxCell>
        <mxCell id="jWrsllp-RiBqLDIkcmEO-17" value="" style="edgeStyle=orthogonalEdgeStyle;rounded=0;orthogonalLoop=1;jettySize=auto;html=1;strokeColor=#000000;fontFamily=Times New Roman;fontSize=14;startArrow=classic;startFill=1;endArrow=none;endFill=0;" edge="1" parent="1">
          <mxGeometry relative="1" as="geometry">
            <mxPoint x="596" y="496" as="sourcePoint" />
            <mxPoint x="596" y="416" as="targetPoint" />
          </mxGeometry>
        </mxCell>
        <mxCell id="jWrsllp-RiBqLDIkcmEO-18" value="Query Hash" style="edgeLabel;html=1;align=center;verticalAlign=middle;resizable=0;points=[];fontSize=14;fontFamily=Times New Roman;" vertex="1" connectable="0" parent="jWrsllp-RiBqLDIkcmEO-17">
          <mxGeometry x="0.225" y="-2" relative="1" as="geometry">
            <mxPoint x="35" y="1" as="offset" />
          </mxGeometry>
        </mxCell>
        <mxCell id="jWrsllp-RiBqLDIkcmEO-22" style="edgeStyle=orthogonalEdgeStyle;rounded=0;orthogonalLoop=1;jettySize=auto;html=1;entryX=1;entryY=0.5;entryDx=0;entryDy=0;strokeColor=#000000;fontFamily=Times New Roman;fontSize=14;startArrow=none;startFill=0;endArrow=classic;endFill=1;" edge="1" parent="1" target="jWrsllp-RiBqLDIkcmEO-1">
          <mxGeometry relative="1" as="geometry">
            <mxPoint x="526" y="245" as="sourcePoint" />
          </mxGeometry>
        </mxCell>
        <mxCell id="jWrsllp-RiBqLDIkcmEO-25" value="User Behaviour" style="edgeLabel;html=1;align=center;verticalAlign=middle;resizable=0;points=[];fontSize=14;fontFamily=Times New Roman;" vertex="1" connectable="0" parent="jWrsllp-RiBqLDIkcmEO-22">
          <mxGeometry x="0.2713" y="2" relative="1" as="geometry">
            <mxPoint x="13" y="-15" as="offset" />
          </mxGeometry>
        </mxCell>
        <mxCell id="jWrsllp-RiBqLDIkcmEO-21" value="User" style="shape=umlActor;verticalLabelPosition=bottom;verticalAlign=top;html=1;outlineConnect=0;rounded=0;glass=0;sketch=0;strokeWidth=1;fontFamily=Times New Roman;fontSize=14;fillColor=#FFFFFF;" vertex="1" parent="1">
          <mxGeometry x="570" y="225" width="30" height="60" as="geometry" />
        </mxCell>
        <mxCell id="jWrsllp-RiBqLDIkcmEO-28" value="" style="edgeStyle=orthogonalEdgeStyle;rounded=0;orthogonalLoop=1;jettySize=auto;html=1;strokeColor=#000000;fontFamily=Times New Roman;fontSize=14;startArrow=classic;startFill=1;endArrow=none;endFill=0;" edge="1" parent="1">
          <mxGeometry relative="1" as="geometry">
            <mxPoint x="584.5" y="367" as="sourcePoint" />
            <mxPoint x="584.5" y="318" as="targetPoint" />
          </mxGeometry>
        </mxCell>
        <mxCell id="jWrsllp-RiBqLDIkcmEO-29" value="User Query" style="edgeLabel;html=1;align=center;verticalAlign=middle;resizable=0;points=[];fontSize=14;fontFamily=Times New Roman;" vertex="1" connectable="0" parent="jWrsllp-RiBqLDIkcmEO-28">
          <mxGeometry x="0.225" y="-2" relative="1" as="geometry">
            <mxPoint x="35" y="1" as="offset" />
          </mxGeometry>
        </mxCell>
        <mxCell id="jWrsllp-RiBqLDIkcmEO-33" style="edgeStyle=orthogonalEdgeStyle;rounded=0;orthogonalLoop=1;jettySize=auto;html=1;exitX=1;exitY=0.5;exitDx=0;exitDy=0;entryX=0;entryY=0.5;entryDx=0;entryDy=0;strokeColor=#000000;fontFamily=Times New Roman;fontSize=14;startArrow=none;startFill=0;endArrow=classic;endFill=1;" edge="1" parent="1" source="jWrsllp-RiBqLDIkcmEO-31" target="jWrsllp-RiBqLDIkcmEO-13">
          <mxGeometry relative="1" as="geometry" />
        </mxCell>
        <mxCell id="jWrsllp-RiBqLDIkcmEO-31" value="Cache" style="rounded=1;whiteSpace=wrap;html=1;strokeWidth=1;fontFamily=Times New Roman;fontSize=14;fillColor=#FFFFFF;" vertex="1" parent="1">
          <mxGeometry x="380" y="496" width="90" height="45" as="geometry" />
        </mxCell>
        <mxCell id="jWrsllp-RiBqLDIkcmEO-34" value="Offline Job" style="text;html=1;align=center;verticalAlign=middle;resizable=0;points=[];autosize=1;strokeColor=none;fillColor=none;fontSize=14;fontFamily=Times New Roman;" vertex="1" parent="1">
          <mxGeometry x="26" y="538" width="81" height="29" as="geometry" />
        </mxCell>
        <mxCell id="jWrsllp-RiBqLDIkcmEO-36" value="Online Service" style="text;html=1;align=center;verticalAlign=middle;resizable=0;points=[];autosize=1;strokeColor=none;fillColor=none;fontSize=14;fontFamily=Times New Roman;" vertex="1" parent="1">
          <mxGeometry x="639" y="538" width="102" height="29" as="geometry" />
        </mxCell>
      </root>
    </mxGraphModel>
  </diagram>
  <diagram id="CHdAaB0WzvUucGvQdhF7" name="search ads recall">
    <mxGraphModel dx="1298" dy="809" grid="0" gridSize="10" guides="1" tooltips="1" connect="1" arrows="1" fold="1" page="1" pageScale="1" pageWidth="850" pageHeight="1100" math="0" shadow="0">
      <root>
        <mxCell id="0" />
        <mxCell id="1" parent="0" />
        <mxCell id="Bwkk0Mr_CpkNGWWByqvc-43" style="edgeStyle=orthogonalEdgeStyle;rounded=0;orthogonalLoop=1;jettySize=auto;html=1;exitX=0.5;exitY=0;exitDx=0;exitDy=0;" edge="1" parent="1" source="Bwkk0Mr_CpkNGWWByqvc-32">
          <mxGeometry relative="1" as="geometry">
            <mxPoint x="332" y="466" as="targetPoint" />
          </mxGeometry>
        </mxCell>
        <mxCell id="Bwkk0Mr_CpkNGWWByqvc-32" value="" style="rounded=0;whiteSpace=wrap;html=1;dashed=1;" vertex="1" parent="1">
          <mxGeometry x="49" y="527" width="566" height="211" as="geometry" />
        </mxCell>
        <mxCell id="Bwkk0Mr_CpkNGWWByqvc-20" value="" style="rounded=0;whiteSpace=wrap;html=1;dashed=1;" vertex="1" parent="1">
          <mxGeometry x="119" y="199" width="196" height="132" as="geometry" />
        </mxCell>
        <mxCell id="Bwkk0Mr_CpkNGWWByqvc-1" value="" style="curved=1;endArrow=classic;html=1;rounded=0;dashed=1;" edge="1" parent="1">
          <mxGeometry width="50" height="50" relative="1" as="geometry">
            <mxPoint x="26" y="346" as="sourcePoint" />
            <mxPoint x="113" y="66" as="targetPoint" />
            <Array as="points">
              <mxPoint x="52" y="308" />
              <mxPoint x="115" y="186" />
            </Array>
          </mxGeometry>
        </mxCell>
        <mxCell id="Bwkk0Mr_CpkNGWWByqvc-12" value="" style="edgeStyle=orthogonalEdgeStyle;rounded=0;orthogonalLoop=1;jettySize=auto;html=1;" edge="1" parent="1" source="Bwkk0Mr_CpkNGWWByqvc-3" target="Bwkk0Mr_CpkNGWWByqvc-8">
          <mxGeometry relative="1" as="geometry" />
        </mxCell>
        <mxCell id="Bwkk0Mr_CpkNGWWByqvc-3" value="Ads Pool" style="shape=cylinder3;whiteSpace=wrap;html=1;boundedLbl=1;backgroundOutline=1;size=15;" vertex="1" parent="1">
          <mxGeometry x="126" y="350" width="180" height="60" as="geometry" />
        </mxCell>
        <mxCell id="Bwkk0Mr_CpkNGWWByqvc-15" style="edgeStyle=orthogonalEdgeStyle;rounded=0;orthogonalLoop=1;jettySize=auto;html=1;exitX=0.5;exitY=0;exitDx=0;exitDy=0;entryX=0.5;entryY=1;entryDx=0;entryDy=0;" edge="1" parent="1" source="Bwkk0Mr_CpkNGWWByqvc-5" target="Bwkk0Mr_CpkNGWWByqvc-6">
          <mxGeometry relative="1" as="geometry" />
        </mxCell>
        <mxCell id="Bwkk0Mr_CpkNGWWByqvc-5" value="Relevance Filter" style="rounded=0;whiteSpace=wrap;html=1;fillColor=#dae8fc;strokeColor=#6c8ebf;" vertex="1" parent="1">
          <mxGeometry x="156" y="213" width="120" height="31" as="geometry" />
        </mxCell>
        <mxCell id="Bwkk0Mr_CpkNGWWByqvc-16" style="edgeStyle=orthogonalEdgeStyle;rounded=0;orthogonalLoop=1;jettySize=auto;html=1;exitX=0.5;exitY=0;exitDx=0;exitDy=0;entryX=0.5;entryY=1;entryDx=0;entryDy=0;" edge="1" parent="1" source="Bwkk0Mr_CpkNGWWByqvc-6" target="Bwkk0Mr_CpkNGWWByqvc-7">
          <mxGeometry relative="1" as="geometry" />
        </mxCell>
        <mxCell id="Bwkk0Mr_CpkNGWWByqvc-6" value="Pre-rank" style="rounded=0;whiteSpace=wrap;html=1;" vertex="1" parent="1">
          <mxGeometry x="156" y="156" width="120" height="31" as="geometry" />
        </mxCell>
        <mxCell id="Bwkk0Mr_CpkNGWWByqvc-19" style="edgeStyle=orthogonalEdgeStyle;rounded=0;orthogonalLoop=1;jettySize=auto;html=1;exitX=0.5;exitY=0;exitDx=0;exitDy=0;" edge="1" parent="1" source="Bwkk0Mr_CpkNGWWByqvc-7">
          <mxGeometry relative="1" as="geometry">
            <mxPoint x="216" y="68" as="targetPoint" />
          </mxGeometry>
        </mxCell>
        <mxCell id="Bwkk0Mr_CpkNGWWByqvc-7" value="Ranking" style="rounded=0;whiteSpace=wrap;html=1;" vertex="1" parent="1">
          <mxGeometry x="156" y="98" width="120" height="31" as="geometry" />
        </mxCell>
        <mxCell id="Bwkk0Mr_CpkNGWWByqvc-14" style="edgeStyle=orthogonalEdgeStyle;rounded=0;orthogonalLoop=1;jettySize=auto;html=1;exitX=0.5;exitY=0;exitDx=0;exitDy=0;entryX=0.5;entryY=1;entryDx=0;entryDy=0;" edge="1" parent="1" source="Bwkk0Mr_CpkNGWWByqvc-8" target="Bwkk0Mr_CpkNGWWByqvc-5">
          <mxGeometry relative="1" as="geometry" />
        </mxCell>
        <mxCell id="Bwkk0Mr_CpkNGWWByqvc-8" value="Recall" style="rounded=0;whiteSpace=wrap;html=1;fillColor=#dae8fc;strokeColor=#6c8ebf;" vertex="1" parent="1">
          <mxGeometry x="156" y="269" width="120" height="31" as="geometry" />
        </mxCell>
        <mxCell id="Bwkk0Mr_CpkNGWWByqvc-11" value="" style="curved=1;endArrow=classic;html=1;rounded=0;dashed=1;" edge="1" parent="1">
          <mxGeometry width="50" height="50" relative="1" as="geometry">
            <mxPoint x="406" y="348" as="sourcePoint" />
            <mxPoint x="321" y="68" as="targetPoint" />
            <Array as="points">
              <mxPoint x="357" y="306" />
              <mxPoint x="323" y="188" />
            </Array>
          </mxGeometry>
        </mxCell>
        <mxCell id="Bwkk0Mr_CpkNGWWByqvc-21" value="Matching Team" style="text;html=1;align=center;verticalAlign=middle;resizable=0;points=[];autosize=1;strokeColor=none;fillColor=none;" vertex="1" parent="1">
          <mxGeometry x="218" y="305" width="99" height="26" as="geometry" />
        </mxCell>
        <mxCell id="Bwkk0Mr_CpkNGWWByqvc-22" value="Users" style="text;html=1;align=center;verticalAlign=middle;resizable=0;points=[];autosize=1;strokeColor=none;fillColor=none;dashed=1;" vertex="1" parent="1">
          <mxGeometry x="191.5" y="32" width="49" height="26" as="geometry" />
        </mxCell>
        <mxCell id="Bwkk0Mr_CpkNGWWByqvc-24" value="Text based Recall" style="rounded=0;whiteSpace=wrap;html=1;" vertex="1" parent="1">
          <mxGeometry x="419" y="545.5" width="70" height="150" as="geometry" />
        </mxCell>
        <mxCell id="Bwkk0Mr_CpkNGWWByqvc-25" value="Semantic Recall&lt;br&gt;(Model-based recall)" style="rounded=0;whiteSpace=wrap;html=1;verticalAlign=top;dashed=1;" vertex="1" parent="1">
          <mxGeometry x="83" y="545" width="140" height="150" as="geometry" />
        </mxCell>
        <mxCell id="Bwkk0Mr_CpkNGWWByqvc-26" value="User Behaviour Recall" style="rounded=0;whiteSpace=wrap;html=1;fillColor=#dae8fc;strokeColor=#6c8ebf;" vertex="1" parent="1">
          <mxGeometry x="511" y="545.5" width="70" height="150" as="geometry" />
        </mxCell>
        <mxCell id="Bwkk0Mr_CpkNGWWByqvc-27" value="I2I Recall&lt;br&gt;(Collaborative filtering）" style="rounded=0;whiteSpace=wrap;html=1;verticalAlign=top;dashed=1;" vertex="1" parent="1">
          <mxGeometry x="249" y="545" width="140" height="150" as="geometry" />
        </mxCell>
        <mxCell id="Bwkk0Mr_CpkNGWWByqvc-28" value="Vector Recall" style="rounded=0;whiteSpace=wrap;html=1;" vertex="1" parent="1">
          <mxGeometry x="100" y="590" width="50" height="100" as="geometry" />
        </mxCell>
        <mxCell id="Bwkk0Mr_CpkNGWWByqvc-29" value="Offline Recall (Full Pool Recall)" style="rounded=0;whiteSpace=wrap;html=1;" vertex="1" parent="1">
          <mxGeometry x="159" y="590" width="50" height="100" as="geometry" />
        </mxCell>
        <mxCell id="Bwkk0Mr_CpkNGWWByqvc-30" value="U2I2I Recall" style="rounded=0;whiteSpace=wrap;html=1;fillColor=#dae8fc;strokeColor=#6c8ebf;" vertex="1" parent="1">
          <mxGeometry x="263" y="591" width="52" height="98" as="geometry" />
        </mxCell>
        <mxCell id="Bwkk0Mr_CpkNGWWByqvc-31" value="Q2I2I Recall" style="rounded=0;whiteSpace=wrap;html=1;fillColor=#dae8fc;strokeColor=#6c8ebf;" vertex="1" parent="1">
          <mxGeometry x="326" y="590" width="50" height="100" as="geometry" />
        </mxCell>
        <mxCell id="Bwkk0Mr_CpkNGWWByqvc-33" value="Search Ads Recall System" style="text;html=1;align=center;verticalAlign=middle;resizable=0;points=[];autosize=1;strokeColor=none;fillColor=none;" vertex="1" parent="1">
          <mxGeometry x="454" y="712" width="159" height="26" as="geometry" />
        </mxCell>
        <mxCell id="Bwkk0Mr_CpkNGWWByqvc-39" style="edgeStyle=orthogonalEdgeStyle;rounded=0;orthogonalLoop=1;jettySize=auto;html=1;exitX=0.5;exitY=0;exitDx=0;exitDy=0;exitPerimeter=0;" edge="1" parent="1" source="Bwkk0Mr_CpkNGWWByqvc-34" target="Bwkk0Mr_CpkNGWWByqvc-32">
          <mxGeometry relative="1" as="geometry" />
        </mxCell>
        <mxCell id="Bwkk0Mr_CpkNGWWByqvc-34" value="Ads Pool" style="shape=cylinder3;whiteSpace=wrap;html=1;boundedLbl=1;backgroundOutline=1;size=15;" vertex="1" parent="1">
          <mxGeometry x="242" y="781" width="180" height="60" as="geometry" />
        </mxCell>
      </root>
    </mxGraphModel>
  </diagram>
</mxfile>
